<svg xmlns="http://www.w3.org/2000/svg" width="72.218" height="71.319" viewBox="0 0 72.218 71.319"><g transform="translate(-0.886 -1.4)"><g transform="translate(2.002 2.4)"><g transform="translate(47.94 34.487)"><circle cx="11.081" cy="11.081" r="11.081" fill="none" stroke="#20849e" stroke-linecap="round" stroke-linejoin="round" stroke-miterlimit="10" stroke-width="2"/><path d="M54.54,43.48a2.94,2.94,0,1,1,2.94-2.94" transform="translate(-43.459 -32.286)" fill="none" stroke="#20849e" stroke-linecap="round" stroke-linejoin="round" stroke-miterlimit="10" stroke-width="2"/><path d="M54.54,42.8a2.94,2.94,0,1,1-2.94,2.94" transform="translate(-43.459 -31.606)" fill="none" stroke="#20849e" stroke-linecap="round" stroke-linejoin="round" stroke-miterlimit="10" stroke-width="2"/><path d="M54.2,37.744V36.5" transform="translate(-43.119 -32.429)" fill="none" stroke="#20849e" stroke-linecap="round" stroke-linejoin="round" stroke-miterlimit="10" stroke-width="2"/><path d="M54.2,47.9v1.131" transform="translate(-43.119 -30.939)" fill="none" stroke="#20849e" stroke-linecap="round" stroke-linejoin="round" stroke-miterlimit="10" stroke-width="2"/></g><circle cx="6.332" cy="6.332" r="6.332" transform="translate(28.266)" fill="none" stroke="#20849e" stroke-linecap="round" stroke-linejoin="round" stroke-miterlimit="10" stroke-width="2"/><path d="M17.531,38.547l-.9-.339a1.31,1.31,0,0,0-1.583.678L13.8,42.053" transform="translate(-0.46 2.271)" fill="none" stroke="#20849e" stroke-linecap="round" stroke-linejoin="round" stroke-miterlimit="10" stroke-width="2"/><path d="M20.9,39.8l.678.339a1.26,1.26,0,0,1,.678,1.583L21.013,45" transform="translate(0.468 2.489)" fill="none" stroke="#20849e" stroke-linecap="round" stroke-linejoin="round" stroke-miterlimit="10" stroke-width="2"/><path d="M4.374,57.2,21.222,63.65A3.715,3.715,0,0,0,26.084,61.5l3.844-9.95a3.715,3.715,0,0,0-2.148-4.862L10.932,40.131A3.715,3.715,0,0,0,6.07,42.28L2.226,52.23A3.938,3.938,0,0,0,4.374,57.2Z" transform="translate(-2.002 2.497)" fill="none" stroke="#20849e" stroke-linecap="round" stroke-linejoin="round" stroke-miterlimit="10" stroke-width="2"/><path d="M4.7,44.4l23.971,9.159" transform="translate(-1.649 3.09)" fill="none" stroke="#20849e" stroke-linecap="round" stroke-linejoin="round" stroke-miterlimit="10" stroke-width="2"/><path d="M34.323,18l1.7,9.5-3.053,4.749L29.8,27.611,32.174,18" transform="translate(1.632 -0.361)" fill="none" stroke="#20849e" stroke-linecap="round" stroke-linejoin="round" stroke-miterlimit="10" stroke-width="2"/><path d="M27.386,50.217V26.02L22.3,41.4c-1.583,3.731-6.445,1.7-4.862-2.035l6.332-18.544A5.228,5.228,0,0,1,28.743,17.2H40.276a8.074,8.074,0,0,1,4.862,1.583l7.915,5.993h10.4a2.974,2.974,0,0,1,2.94,3.166,3.056,3.056,0,0,1-3.053,2.6H53.619a7.014,7.014,0,0,1-3.957-1.131L42.99,25.228,43.1,66.951a2.815,2.815,0,0,1-2.374,2.827,2.618,2.618,0,0,1-2.827-2.6V45.129a2.374,2.374,0,0,0-4.749,0V66.951a2.827,2.827,0,1,1-5.654,0V56.323" transform="translate(-0.025 -0.466)" fill="none" stroke="#20849e" stroke-linecap="round" stroke-linejoin="round" stroke-miterlimit="10" stroke-width="2"/></g><g transform="translate(2.002 2.4)"><g transform="translate(47.94 34.487)"><circle cx="11.081" cy="11.081" r="11.081" fill="none" stroke="#20849e" stroke-linecap="round" stroke-linejoin="round" stroke-miterlimit="10" stroke-width="2"/><path d="M54.54,43.48a2.94,2.94,0,1,1,2.94-2.94" transform="translate(-43.459 -32.286)" fill="none" stroke="#20849e" stroke-linecap="round" stroke-linejoin="round" stroke-miterlimit="10" stroke-width="2"/><path d="M54.54,42.8a2.94,2.94,0,1,1-2.94,2.94" transform="translate(-43.459 -31.606)" fill="none" stroke="#20849e" stroke-linecap="round" stroke-linejoin="round" stroke-miterlimit="10" stroke-width="2"/><path d="M54.2,37.744V36.5" transform="translate(-43.119 -32.429)" fill="none" stroke="#20849e" stroke-linecap="round" stroke-linejoin="round" stroke-miterlimit="10" stroke-width="2"/><path d="M54.2,47.9v1.131" transform="translate(-43.119 -30.939)" fill="none" stroke="#20849e" stroke-linecap="round" stroke-linejoin="round" stroke-miterlimit="10" stroke-width="2"/></g><circle cx="6.332" cy="6.332" r="6.332" transform="translate(28.266)" fill="none" stroke="#20849e" stroke-linecap="round" stroke-linejoin="round" stroke-miterlimit="10" stroke-width="2"/><path d="M17.531,38.547l-.9-.339a1.31,1.31,0,0,0-1.583.678L13.8,42.053" transform="translate(-0.46 2.271)" fill="none" stroke="#20849e" stroke-linecap="round" stroke-linejoin="round" stroke-miterlimit="10" stroke-width="2"/><path d="M20.9,39.8l.678.339a1.26,1.26,0,0,1,.678,1.583L21.013,45" transform="translate(0.468 2.489)" fill="none" stroke="#20849e" stroke-linecap="round" stroke-linejoin="round" stroke-miterlimit="10" stroke-width="2"/><path d="M4.374,57.2,21.222,63.65A3.715,3.715,0,0,0,26.084,61.5l3.844-9.95a3.715,3.715,0,0,0-2.148-4.862L10.932,40.131A3.715,3.715,0,0,0,6.07,42.28L2.226,52.23A3.938,3.938,0,0,0,4.374,57.2Z" transform="translate(-2.002 2.497)" fill="none" stroke="#20849e" stroke-linecap="round" stroke-linejoin="round" stroke-miterlimit="10" stroke-width="2"/><path d="M4.7,44.4l23.971,9.159" transform="translate(-1.649 3.09)" fill="none" stroke="#20849e" stroke-linecap="round" stroke-linejoin="round" stroke-miterlimit="10" stroke-width="2"/><path d="M34.323,18l1.7,9.5-3.053,4.749L29.8,27.611,32.174,18" transform="translate(1.632 -0.361)" fill="none" stroke="#20849e" stroke-linecap="round" stroke-linejoin="round" stroke-miterlimit="10" stroke-width="2"/><path d="M27.386,50.217V26.02L22.3,41.4c-1.583,3.731-6.445,1.7-4.862-2.035l6.332-18.544A5.228,5.228,0,0,1,28.743,17.2H40.276a8.074,8.074,0,0,1,4.862,1.583l7.915,5.993h10.4a2.974,2.974,0,0,1,2.94,3.166,3.056,3.056,0,0,1-3.053,2.6H53.619a7.014,7.014,0,0,1-3.957-1.131L42.99,25.228,43.1,66.951a2.815,2.815,0,0,1-2.374,2.827,2.618,2.618,0,0,1-2.827-2.6V45.129a2.374,2.374,0,0,0-4.749,0V66.951a2.827,2.827,0,1,1-5.654,0V56.323" transform="translate(-0.025 -0.466)" fill="none" stroke="#20849e" stroke-linecap="round" stroke-linejoin="round" stroke-miterlimit="10" stroke-width="2"/></g></g></svg>