<svg xmlns="http://www.w3.org/2000/svg" width="124" height="124" viewBox="0 0 124 124"><g transform="translate(-11447.652 11072.635)"><circle cx="62" cy="62" r="62" transform="translate(11447.652 -11072.635)" fill="#b8dcf3"/><g transform="translate(11472.797 -11081)"><g transform="translate(0 35)"><path d="M36.856,81.88a6.416,6.416,0,1,1,6.438-6.438A6.445,6.445,0,0,1,36.856,81.88Zm35.6,23.85H1.253A1.254,1.254,0,0,1,0,104.477V42.993A1.254,1.254,0,0,1,1.253,41.74H11.536V36.253A1.254,1.254,0,0,1,12.789,35H21.3a1.254,1.254,0,0,1,1.253,1.253V41.74h8.814V36.253A1.254,1.254,0,0,1,32.622,35h8.512a1.254,1.254,0,0,1,1.253,1.253V41.74h8.771V36.253A1.254,1.254,0,0,1,52.411,35h8.555a1.254,1.254,0,0,1,1.253,1.253V41.74h10.24a1.254,1.254,0,0,1,1.253,1.253v61.484A1.254,1.254,0,0,1,72.459,105.73ZM2.506,103.224h68.7V57.77H2.506ZM39.88,48.481V37.506H33.875V48.481Zm19.832,0V37.506H53.664V48.481Zm11.493,6.784V44.246H62.219l-.043,5.617a1.2,1.2,0,0,1-1.339,1.123H52.411a1.254,1.254,0,0,1-1.253-1.253V44.246H42.386l-.043,5.531c0,.778-.518,1.21-1.383,1.21H32.622a1.254,1.254,0,0,1-1.253-1.253V44.246H22.554v5.617a1.1,1.1,0,0,1-1.08,1.08l-8.685.043a1.254,1.254,0,0,1-1.253-1.253V44.246H2.506V55.264ZM14.042,48.481h6.006V37.506H14.042Zm41.652,52.583a1.254,1.254,0,0,1-1.253-1.253V96.1H11.148a1.253,1.253,0,0,1,0-2.506H54.441V89.83a1.253,1.253,0,0,1,1.988-.994l6.87,4.969a1.253,1.253,0,0,1,0,2.031l-6.87,4.969A1.173,1.173,0,0,1,55.694,101.064Zm1.253-8.771v5.055l3.5-2.506ZM39.621,91H34.091a1.254,1.254,0,0,1-1.253-1.253V86.59a9.883,9.883,0,0,1-.994-.432L29.64,88.4a1.278,1.278,0,0,1-1.772,0l-3.932-3.932a1.278,1.278,0,0,1,0-1.772l2.247-2.2a10.553,10.553,0,0,1-.432-1.037H22.6a1.254,1.254,0,0,1-1.253-1.253V72.677A1.254,1.254,0,0,1,22.6,71.424h3.154a9.884,9.884,0,0,1,.432-.994l-2.247-2.2a1.278,1.278,0,0,1,0-1.771l3.932-3.932a1.278,1.278,0,0,1,1.772,0l2.2,2.247a9.886,9.886,0,0,1,.994-.432V61.184a1.254,1.254,0,0,1,1.253-1.253h5.531a1.254,1.254,0,0,1,1.253,1.253v3.154a10.556,10.556,0,0,1,1.037.432l2.2-2.247a1.279,1.279,0,0,1,1.772,0l3.932,3.932a1.278,1.278,0,0,1,0,1.771l-2.247,2.2a9.884,9.884,0,0,1,.432.994h3.154a1.254,1.254,0,0,1,1.253,1.253v5.531a1.254,1.254,0,0,1-1.253,1.253H48a10.553,10.553,0,0,1-.432,1.037l2.247,2.2a1.278,1.278,0,0,1,0,1.772L45.886,88.4a1.279,1.279,0,0,1-1.772,0l-2.2-2.247a10.552,10.552,0,0,1-1.037.432v3.154A1.254,1.254,0,0,1,39.621,91Zm-4.278-2.506h3.025c0-5.228-.13-3.068,3.154-4.926a1.246,1.246,0,0,1,1.512.173l1.988,1.988,2.117-2.117-1.988-1.988c-.951-.951.173-1.728.735-3.716a1.211,1.211,0,0,1,1.21-.951H49.9V73.93c-5.228,0-3.068.173-4.969-3.111a1.312,1.312,0,0,1,.216-1.512l1.988-1.988L45.022,65.2l-1.988,1.988c-.994.951-1.728-.173-3.716-.735a1.246,1.246,0,0,1-.951-1.21V62.437H35.344c0,5.228.173,3.068-3.111,4.926a1.239,1.239,0,0,1-1.512-.173L28.733,65.2l-2.16,2.117,1.988,1.988c.994.951-.173,1.728-.691,3.716a1.209,1.209,0,0,1-1.21.907H23.85v3.025c5.228,0,3.025-.13,4.926,3.154a1.2,1.2,0,0,1-.216,1.512l-1.988,1.988,2.16,2.117,1.988-1.988c.951-.951,1.728.173,3.716.735a1.257,1.257,0,0,1,.907,1.21Zm1.512-16.937a3.91,3.91,0,0,0,0,7.821,3.91,3.91,0,1,0,0-7.821Z" transform="translate(0 -35)" fill="#20849e" fill-rule="evenodd"/></g></g></g></svg>