<svg xmlns="http://www.w3.org/2000/svg" width="94.701" height="94.701" viewBox="0 0 94.701 94.701"><g transform="translate(-16 -16)"><g transform="translate(16 16)"><path d="M44.41,292.109H17.578A1.578,1.578,0,0,1,16,290.53v-2.966a1.579,1.579,0,0,1,.191-.753l10.446-19.246-4.917-9.319a1.576,1.576,0,0,1-.17-.543l-1.665-13.475a1.578,1.578,0,0,1,1.336-1.755l2.729-.4a7.534,7.534,0,0,1,8.281,5.287l.632,2.133,1.27-2.331,2.772,1.51-3.088,5.671a1.578,1.578,0,0,1-2.9-.306L29.2,248.255a4.363,4.363,0,0,0-4.794-3.061l-1.2.177,1.441,11.657,5.176,9.811a1.579,1.579,0,0,1-.009,1.49L19.157,287.965v.987H43.338l3.677-9.276a1.582,1.582,0,0,1,.459-.633l5.662-4.7a4.323,4.323,0,0,0,1.042-1.268l2.775,1.506a7.461,7.461,0,0,1-1.8,2.191L49.8,281.214l-3.923,9.9a1.579,1.579,0,0,1-1.467,1Z" transform="translate(-16 -197.408)" fill="#20849e"/><g transform="translate(53.749 44.588)"><path d="M407.119,280.235l-6.462-11.906a1.579,1.579,0,0,1-.009-1.49l5.176-9.811,1.441-11.657-1.2-.177a4.361,4.361,0,0,0-4.794,3.061l-1.713,5.779a1.578,1.578,0,0,1-2.9.3l-2.221-4.092,2.774-1.506.4.744.63-2.125a7.536,7.536,0,0,1,8.28-5.287l2.729.4a1.578,1.578,0,0,1,1.336,1.755L408.922,257.7a1.578,1.578,0,0,1-.171.543l-4.917,9.319,6.059,11.163Z" transform="translate(-373.519 -241.995)" fill="#20849e"/><path d="M327.8,418.551H300.972a1.579,1.579,0,0,1-1.467-1l-3.923-9.9-5.352-4.444a7.465,7.465,0,0,1-1.8-2.192l2.774-1.506a4.322,4.322,0,0,0,1.042,1.269l5.662,4.7a1.581,1.581,0,0,1,.459.633l3.677,9.276h24.181v-.987l-2.483-4.574,2.774-1.506,2.674,4.926a1.579,1.579,0,0,1,.191.753v2.966A1.578,1.578,0,0,1,327.8,418.551Z" transform="translate(-288.43 -368.437)" fill="#20849e"/></g><path d="M311.56,169.6l-2.811-1.437a7.025,7.025,0,0,0,.774-3.228,7.121,7.121,0,0,0-.272-1.953,1.578,1.578,0,0,1,1.389-2.006,3.965,3.965,0,0,0,3.618-3.932q0-.055,0-.109a1.578,1.578,0,0,1,.859-1.452,7.1,7.1,0,0,0-5.849-12.933,1.578,1.578,0,0,1-2.1-1.041l-4.149-14.817,3.04-.851,3.716,13.272a10.262,10.262,0,0,1,7.6,18.715,7.167,7.167,0,0,1-4.758,5.935,10.293,10.293,0,0,1-1.053,5.838Z" transform="translate(-246.389 -104.171)" fill="#20849e"/><path d="M146.831,255.8a9.448,9.448,0,0,1-8.21-4.746q-.235.011-.471.011a10.265,10.265,0,0,1-10.193-11.433,7.152,7.152,0,0,1-4.8-6.718q0-.237.016-.473a10.266,10.266,0,0,1-2.053-12.083l2.811,1.437a7.109,7.109,0,0,0,1.9,8.781,1.578,1.578,0,0,1,.562,1.547,3.952,3.952,0,0,0,3.539,4.724,1.578,1.578,0,0,1,1.389,2.006,7.109,7.109,0,0,0,6.831,9.056,7.2,7.2,0,0,0,1.147-.092,1.578,1.578,0,0,1,1.707.949,6.317,6.317,0,0,0,11.654,0,1.577,1.577,0,0,1,1.708-.949,7.2,7.2,0,0,0,1.146.092,7.112,7.112,0,0,0,4.519-1.623l2.01,2.434a10.294,10.294,0,0,1-7,2.335A9.448,9.448,0,0,1,146.831,255.8Z" transform="translate(-99.48 -180.04)" fill="#20849e"/><path d="M140.916,143.675l-2.01-2.434a10.306,10.306,0,0,1,7.127-2.328l3.66-13.07,3.04.851L148.7,141.076a1.578,1.578,0,0,1-1.837,1.121,7.121,7.121,0,0,0-5.952,1.478Z" transform="translate(-114.657 -104.172)" fill="#20849e"/><rect width="16.096" height="3.157" transform="matrix(0.196, -0.981, 0.981, 0.196, 37.911, 43.884)" fill="#20849e"/><rect width="3.157" height="16.096" transform="translate(50.538 28.72) rotate(-11.31)" fill="#20849e"/><rect width="2" height="10" transform="translate(46.351 43.35)" fill="#20849e"/><path d="M58.311,111.95a8.544,8.544,0,0,1-2.865-.8,10.667,10.667,0,0,0-2.4-.756,7.892,7.892,0,1,1,1.565-11.171h0c.523.679,1.945,2.767,3.252,4.922,2.667,4.4,2.6,5.348,2.571,5.859a2.036,2.036,0,0,1-.929,1.615A2.17,2.17,0,0,1,58.311,111.95ZM57.287,109.913ZM48.354,99.3a4.735,4.735,0,1,0,2.9,8.485c1.436-1.107,3.478-.319,5.291.4a68.155,68.155,0,0,0-4.432-7.039,4.7,4.7,0,0,0-3.143-1.8A4.8,4.8,0,0,0,48.354,99.3Z" transform="translate(-35.643 -80.335)" fill="#20849e"/><path d="M362.114,111.8a2.171,2.171,0,0,1-1.2-.334,2.036,2.036,0,0,1-.929-1.615c-.034-.511-.1-1.461,2.57-5.859,1.307-2.155,2.728-4.243,3.252-4.922h0a7.892,7.892,0,1,1,1.565,11.171,10.659,10.659,0,0,0-2.4.756A8.554,8.554,0,0,1,362.114,111.8ZM363.138,109.765Zm4.29-2.673a2.76,2.76,0,0,1,1.741.55,4.735,4.735,0,1,0-.858-6.641h0a68.046,68.046,0,0,0-4.433,7.039,10.4,10.4,0,0,1,3.55-.948Z" transform="translate(-292.116 -80.217)" fill="#20849e"/><path d="M237.556,16H202.832v3.157h33.145v4.735H205.989a1.578,1.578,0,0,0-1.548,1.269l-1.325,6.623H180.451l-.947-4.735h20.172V23.892H179.157V21.524a2.37,2.37,0,0,1,2.368-2.368h18.151V16H181.524A5.53,5.53,0,0,0,176,21.524V25.47a1.575,1.575,0,0,0,.031.31l1.578,7.891a1.578,1.578,0,0,0,1.548,1.269H204.41a1.578,1.578,0,0,0,1.548-1.269l1.325-6.623h30.273a1.578,1.578,0,0,0,1.578-1.578V17.578A1.578,1.578,0,0,0,237.556,16Z" transform="translate(-144.433 -16)" fill="#20849e"/></g><path d="M225.179,320.878a9.4,9.4,0,0,1-7.575-3.786l2.524-1.9a6.314,6.314,0,0,0,10.1,0l2.524,1.9A9.4,9.4,0,0,1,225.179,320.878Z" transform="translate(-161.828 -240.166)" fill="#20849e"/><path d="M309.578,262.484,308,259.75a6.267,6.267,0,0,0,3.112-4.713l3.134.38A9.4,9.4,0,0,1,309.578,262.484Z" transform="translate(-234.39 -191.876)" fill="#20849e"/><path d="M177.011,262.484a9.4,9.4,0,0,1-4.667-7.067l3.134-.38a6.267,6.267,0,0,0,3.112,4.713Z" transform="translate(-125.498 -191.876)" fill="#20849e"/></g></svg>