<svg xmlns="http://www.w3.org/2000/svg" width="124" height="124" viewBox="0 0 124 124"><g transform="translate(-1101 -3656.365)"><circle cx="62" cy="62" r="62" transform="translate(1101 3656.365)" fill="#e3f1fa"/><path d="M24.159,50.729h3.927a.931.931,0,0,0,.93-.93V46.91H47.354V49.8a.931.931,0,0,0,.93.93h3.927a.931.931,0,0,0,.93-.93V38.1A2.642,2.642,0,0,0,51.784,35.8v-4.99a4.939,4.939,0,0,0-4.933-4.933H29.518a4.939,4.939,0,0,0-4.933,4.933V35.8A2.64,2.64,0,0,0,23.229,38.1V49.8a.93.93,0,0,0,.93.93Zm3-1.86H25.089V46.91h2.066ZM25.089,38.1a.781.781,0,0,1,.78-.78H50.5a.781.781,0,0,1,.78.78v6.948H25.089Zm10.261-2.64H29.662V33.158a1.4,1.4,0,0,1,1.4-1.4h2.9a1.4,1.4,0,0,1,1.4,1.4Zm11.356,0H41.018V33.158a1.4,1.4,0,0,1,1.4-1.4h2.9a1.4,1.4,0,0,1,1.4,1.4Zm2.508,13.405V46.91h2.066v1.958Zm-19.7-21.133H46.851a3.076,3.076,0,0,1,3.073,3.073v4.655H48.568V33.158A3.259,3.259,0,0,0,45.312,29.9h-2.9a3.259,3.259,0,0,0-3.256,3.256v2.305H37.212V33.158A3.259,3.259,0,0,0,33.956,29.9h-2.9A3.259,3.259,0,0,0,27.8,33.158v2.305H26.447V30.808a3.074,3.074,0,0,1,3.071-3.073Zm3.908,38.617H59.674a.93.93,0,1,1,0,1.86H33.426a.93.93,0,0,1,0-1.86ZM60.6,73.144a.931.931,0,0,1-.93.93H33.426a.93.93,0,0,1,0-1.86H59.674A.931.931,0,0,1,60.6,73.144Zm29.118-8.471a10.488,10.488,0,0,0-7.8-10.123V49.04a4.108,4.108,0,0,0-4.1-4.1H61.37V38.186A23.185,23.185,0,1,0,22.8,55.508v27.04H19.438a.931.931,0,0,0-.93.93v2.657A3.591,3.591,0,0,0,22.1,89.722H82.627a3.591,3.591,0,0,0,3.587-3.587V83.478a.931.931,0,0,0-.93-.93H81.928V74.795a10.487,10.487,0,0,0,7.795-10.122Zm-1.86,0a8.612,8.612,0,1,1-8.612-8.612A8.621,8.621,0,0,1,87.862,64.673ZM77.822,46.8a2.246,2.246,0,0,1,2.243,2.243v5.2c-.27-.02-.541-.034-.815-.034s-.546.014-.815.034V49.358a.931.931,0,0,0-.93-.93H61.37V46.8ZM61.37,60.439V50.288H76.576V54.55a10.47,10.47,0,0,0,0,20.246v4.262H28.146V59.081A23.055,23.055,0,0,0,38.184,61.37H60.438A.931.931,0,0,0,61.37,60.439ZM16.86,38.184a21.324,21.324,0,0,1,42.647,0V59.508H38.184A21.347,21.347,0,0,1,16.86,38.184ZM84.354,86.135a1.729,1.729,0,0,1-1.727,1.727H22.1a1.729,1.729,0,0,1-1.727-1.727V84.408H84.352v1.727Zm-4.288-3.586H24.657V57c.527.38,1.071.739,1.631,1.074V79.987a.931.931,0,0,0,.93.93H77.506a.931.931,0,0,0,.93-.93V75.108c.27.02.541.034.815.034s.546-.014.815-.034v7.441ZM77.948,66.864l5.677-6.44a.93.93,0,0,1,1.4,1.231l-6.407,7.268a.932.932,0,0,1-.7.315H77.9a.93.93,0,0,1-.7-.347l-3.738-4.643A.931.931,0,1,1,74.9,63.08Z" transform="translate(1110.639 3664.004)" fill="#20849e"/></g></svg>