<svg xmlns="http://www.w3.org/2000/svg" width="51.932" height="94.939" viewBox="0 0 51.932 94.939"><g transform="translate(-115.966)"><g transform="translate(115.966)"><path d="M166.508,9.216a7.834,7.834,0,0,1-7.825-7.825A1.391,1.391,0,0,0,157.292,0H126.572a1.39,1.39,0,0,0-1.391,1.391,7.834,7.834,0,0,1-7.825,7.825,1.39,1.39,0,0,0-1.391,1.391V84.332a1.39,1.39,0,0,0,1.391,1.391,7.834,7.834,0,0,1,7.825,7.825,1.39,1.39,0,0,0,1.391,1.391h30.719a1.391,1.391,0,0,0,1.391-1.391,7.834,7.834,0,0,1,7.825-7.825,1.39,1.39,0,0,0,1.391-1.391V10.606A1.391,1.391,0,0,0,166.508,9.216Zm-1.391,73.817a10.629,10.629,0,0,0-9.125,9.125H127.872a10.629,10.629,0,0,0-9.125-9.125V11.906a10.629,10.629,0,0,0,9.125-9.125h28.119a10.629,10.629,0,0,0,9.125,9.125Z" transform="translate(-115.966)" fill="#7d8c48"/><path d="M180.694,33.966a1.391,1.391,0,0,0-1.274-.833h-21a1.391,1.391,0,0,0-1.274.833,13.984,13.984,0,0,1-7.217,7.217,1.391,1.391,0,0,0-.833,1.274v9.434a1.391,1.391,0,1,0,2.781,0V43.339a16.746,16.746,0,0,0,7.424-7.424h19.233a16.748,16.748,0,0,0,7.425,7.425v62.24A16.745,16.745,0,0,0,178.539,113H159.306a16.746,16.746,0,0,0-7.424-7.424V57.463a1.391,1.391,0,1,0-2.781,0v49a1.391,1.391,0,0,0,.833,1.274,13.984,13.984,0,0,1,7.217,7.217,1.391,1.391,0,0,0,1.274.833h21a1.391,1.391,0,0,0,1.274-.833,13.984,13.984,0,0,1,7.217-7.217,1.391,1.391,0,0,0,.833-1.274v-64a1.391,1.391,0,0,0-.833-1.274A13.985,13.985,0,0,1,180.694,33.966Z" transform="translate(-142.956 -26.989)" fill="#7d8c48"/><path d="M229.045,381.029H216.757a1.391,1.391,0,0,0-1.391,1.391v6.144a1.391,1.391,0,0,0,1.391,1.391h12.288a1.39,1.39,0,0,0,1.391-1.391V382.42A1.391,1.391,0,0,0,229.045,381.029Zm-1.391,6.144h-9.506V383.81h9.506Z" transform="translate(-196.935 -310.376)" fill="#7d8c48"/><path d="M209.408,149.1a10.607,10.607,0,0,0-4.862,20.033l-1.133,18.134a1.391,1.391,0,0,0,1.388,1.477h9.216a1.391,1.391,0,0,0,1.388-1.477l-1.133-18.134a10.607,10.607,0,0,0-4.863-20.033Zm2.9,17.874a1.391,1.391,0,0,0-.872,1.378l1.1,17.61h-6.255l1.1-17.61a1.391,1.391,0,0,0-.872-1.378,7.825,7.825,0,1,1,5.8,0Z" transform="translate(-183.442 -121.454)" fill="#7d8c48"/></g></g></svg>